<svg xmlns="http://www.w3.org/2000/svg" xmlns:xlink="http://www.w3.org/1999/xlink" contentStyleType="text/css" data-diagram-type="DESCRIPTION" height="374px" preserveAspectRatio="none" style="width:3784px;height:374px;background:#FFFFFF;" version="1.1" viewBox="0 0 3784 374" width="3784px" zoomAndPan="magnify"><?plantuml 1.2026.5?><defs/><g><g class="title" data-source-line="1"><text fill="#000000" font-family="sans-serif" font-size="14" font-weight="700" lengthAdjust="spacing" textLength="357.1367" x="1710.4052" y="23.5352">Diagrama de Componentes &#8212; Sockets y Lollipops</text></g><!--entity CLI--><g class="entity" data-qualified-name="CLI" data-source-line="17" id="ent0001"><ellipse cx="895.6911" cy="153.6083" fill="#F1F1F1" rx="8" ry="8" style="stroke:#181818;stroke-width:0.5;"/><path d="M895.6911,161.6083 L895.6911,188.6083 M882.6911,169.6083 L908.6911,169.6083 M895.6911,188.6083 L882.6911,203.6083 M895.6911,188.6083 L908.6911,203.6083" fill="none" style="stroke:#181818;stroke-width:0.5;"/><text fill="#000000" font-family="sans-serif" font-size="14" lengthAdjust="spacing" textLength="123.6621" x="833.86" y="218.6434">Cliente Web/M&#243;vil</text></g><!--entity API--><g class="entity" data-qualified-name="API" data-source-line="19" id="ent0002"><rect fill="#E8F4FD" height="62.9766" rx="2.5" ry="2.5" style="stroke:#2C5F8D;stroke-width:0.5;" width="223.2646" x="1320.06" y="151.8683"/><rect fill="#E8F4FD" height="10" style="stroke:#2C5F8D;stroke-width:0.5;" width="15" x="1523.3246" y="156.8683"/><rect fill="#E8F4FD" height="2" style="stroke:#2C5F8D;stroke-width:0.5;" width="4" x="1521.3246" y="158.8683"/><rect fill="#E8F4FD" height="2" style="stroke:#2C5F8D;stroke-width:0.5;" width="4" x="1521.3246" y="162.8683"/><text fill="#000000" font-family="sans-serif" font-size="14" lengthAdjust="spacing" textLength="58.6934" x="1335.06" y="185.4034">API REST</text><text fill="#000000" font-family="sans-serif" font-size="14" lengthAdjust="spacing" textLength="183.2646" x="1335.06" y="201.8917">(Spring MVC + Controllers)</text></g><!--entity SEC--><g class="entity" data-qualified-name="SEC" data-source-line="20" id="ent0003"><rect fill="#E8F4FD" height="62.9766" rx="2.5" ry="2.5" style="stroke:#2C5F8D;stroke-width:0.5;" width="299.3896" x="7" y="151.8683"/><rect fill="#E8F4FD" height="10" style="stroke:#2C5F8D;stroke-width:0.5;" width="15" x="286.3896" y="156.8683"/><rect fill="#E8F4FD" height="2" style="stroke:#2C5F8D;stroke-width:0.5;" width="4" x="284.3896" y="158.8683"/><rect fill="#E8F4FD" height="2" style="stroke:#2C5F8D;stroke-width:0.5;" width="4" x="284.3896" y="162.8683"/><text fill="#000000" font-family="sans-serif" font-size="14" lengthAdjust="spacing" textLength="67.8877" x="22" y="185.4034">Seguridad</text><text fill="#000000" font-family="sans-serif" font-size="14" lengthAdjust="spacing" textLength="259.3896" x="22" y="201.8917">(Spring Security + JWT Filter + BCrypt)</text></g><!--entity SVC--><g class="entity" data-qualified-name="SVC" data-source-line="21" id="ent0004"><rect fill="#E8F4FD" height="62.9766" rx="2.5" ry="2.5" style="stroke:#2C5F8D;stroke-width:0.5;" width="316.876" x="2285.26" y="151.8683"/><rect fill="#E8F4FD" height="10" style="stroke:#2C5F8D;stroke-width:0.5;" width="15" x="2582.136" y="156.8683"/><rect fill="#E8F4FD" height="2" style="stroke:#2C5F8D;stroke-width:0.5;" width="4" x="2580.136" y="158.8683"/><rect fill="#E8F4FD" height="2" style="stroke:#2C5F8D;stroke-width:0.5;" width="4" x="2580.136" y="162.8683"/><text fill="#000000" font-family="sans-serif" font-size="14" lengthAdjust="spacing" textLength="140.0752" x="2300.26" y="185.4034">Servicios de Negocio</text><text fill="#000000" font-family="sans-serif" font-size="14" lengthAdjust="spacing" textLength="276.876" x="2300.26" y="201.8917">(Auth, Pedido, Factura, Reporte, Usuario)</text></g><!--entity PERS--><g class="entity" data-qualified-name="PERS" data-source-line="22" id="ent0005"><rect fill="#E8F4FD" height="62.9766" rx="2.5" ry="2.5" style="stroke:#2C5F8D;stroke-width:0.5;" width="197.9102" x="3179.74" y="151.8683"/><rect fill="#E8F4FD" height="10" style="stroke:#2C5F8D;stroke-width:0.5;" width="15" x="3357.6502" y="156.8683"/><rect fill="#E8F4FD" height="2" style="stroke:#2C5F8D;stroke-width:0.5;" width="4" x="3355.6502" y="158.8683"/><rect fill="#E8F4FD" height="2" style="stroke:#2C5F8D;stroke-width:0.5;" width="4" x="3355.6502" y="162.8683"/><text fill="#000000" font-family="sans-serif" font-size="14" lengthAdjust="spacing" textLength="80.2607" x="3194.74" y="185.4034">Persistencia</text><text fill="#000000" font-family="sans-serif" font-size="14" lengthAdjust="spacing" textLength="157.9102" x="3194.74" y="201.8917">(Spring Data MongoDB)</text></g><!--entity SWG--><g class="entity" data-qualified-name="SWG" data-source-line="23" id="ent0006"><rect fill="#E8F4FD" height="62.9766" rx="2.5" ry="2.5" style="stroke:#2C5F8D;stroke-width:0.5;" width="179.4189" x="618.99" y="151.8683"/><rect fill="#E8F4FD" height="10" style="stroke:#2C5F8D;stroke-width:0.5;" width="15" x="778.4089" y="156.8683"/><rect fill="#E8F4FD" height="2" style="stroke:#2C5F8D;stroke-width:0.5;" width="4" x="776.4089" y="158.8683"/><rect fill="#E8F4FD" height="2" style="stroke:#2C5F8D;stroke-width:0.5;" width="4" x="776.4089" y="162.8683"/><text fill="#000000" font-family="sans-serif" font-size="14" lengthAdjust="spacing" textLength="75.209" x="633.99" y="185.4034">Swagger UI</text><text fill="#000000" font-family="sans-serif" font-size="14" lengthAdjust="spacing" textLength="139.4189" x="633.99" y="201.8917">(springdoc-openapi)</text></g><!--entity DB--><g class="entity" data-qualified-name="DB" data-source-line="24" id="ent0007"><path d="M3661.45,170.6083 C3661.45,160.6083 3710.6985,160.6083 3710.6985,160.6083 C3710.6985,160.6083 3759.9471,160.6083 3759.9471,170.6083 L3759.9471,196.0966 C3759.9471,206.0966 3710.6985,206.0966 3710.6985,206.0966 C3710.6985,206.0966 3661.45,206.0966 3661.45,196.0966 L3661.45,170.6083" fill="#DAE8FC" style="stroke:#6C8EBF;stroke-width:0.5;"/><path d="M3661.45,170.6083 C3661.45,180.6083 3710.6985,180.6083 3710.6985,180.6083 C3710.6985,180.6083 3759.9471,180.6083 3759.9471,170.6083" fill="none" style="stroke:#6C8EBF;stroke-width:0.5;"/><text fill="#000000" font-family="sans-serif" font-size="14" lengthAdjust="spacing" textLength="78.4971" x="3671.45" y="198.1434">MongoDB 7</text></g><!--entity IOAS--><g class="entity" data-qualified-name="IOAS" data-source-line="27" id="ent0008"><ellipse cx="803.69" cy="327.5983" fill="#FFF2CC" rx="8" ry="8" style="stroke:#B8860B;stroke-width:0.5;"/><text fill="#000000" font-family="sans-serif" font-size="14" lengthAdjust="spacing" textLength="88.9287" x="759.2256" y="358.1334">OpenAPISpec</text></g><!--entity IJWT--><g class="entity" data-qualified-name="IJWT" data-source-line="28" id="ent0009"><ellipse cx="521.69" cy="327.5983" fill="#FFF2CC" rx="8" ry="8" style="stroke:#B8860B;stroke-width:0.5;"/><text fill="#000000" font-family="sans-serif" font-size="14" lengthAdjust="spacing" textLength="130.5938" x="456.3931" y="358.1334">JwtTokenValidation</text></g><!--entity IAUTH--><g class="entity" data-qualified-name="IAUTH" data-source-line="29" id="ent0010"><ellipse cx="1049.69" cy="327.5983" fill="#FFF2CC" rx="8" ry="8" style="stroke:#B8860B;stroke-width:0.5;"/><text fill="#000000" font-family="sans-serif" font-size="14" lengthAdjust="spacing" textLength="83.6377" x="1007.8712" y="358.1334">IAuthService</text></g><!--entity IPED--><g class="entity" data-qualified-name="IPED" data-source-line="30" id="ent0011"><ellipse cx="1915.69" cy="327.5983" fill="#FFF2CC" rx="8" ry="8" style="stroke:#B8860B;stroke-width:0.5;"/><text fill="#000000" font-family="sans-serif" font-size="14" lengthAdjust="spacing" textLength="97.1729" x="1867.1036" y="358.1334">IPedidoService</text></g><!--entity IFAC--><g class="entity" data-qualified-name="IFAC" data-source-line="31" id="ent0012"><ellipse cx="2285.69" cy="327.5983" fill="#FFF2CC" rx="8" ry="8" style="stroke:#B8860B;stroke-width:0.5;"/><text fill="#000000" font-family="sans-serif" font-size="14" lengthAdjust="spacing" textLength="101.1582" x="2235.1109" y="358.1334">IFacturaService</text></g><!--entity IREP--><g class="entity" data-qualified-name="IREP" data-source-line="32" id="ent0013"><ellipse cx="2106.69" cy="327.5983" fill="#FFF2CC" rx="8" ry="8" style="stroke:#B8860B;stroke-width:0.5;"/><text fill="#000000" font-family="sans-serif" font-size="14" lengthAdjust="spacing" textLength="104.1934" x="2054.5933" y="358.1334">IReporteService</text></g><!--entity IUSV--><g class="entity" data-qualified-name="IUSV" data-source-line="33" id="ent0014"><ellipse cx="1742.69" cy="327.5983" fill="#FFF2CC" rx="8" ry="8" style="stroke:#B8860B;stroke-width:0.5;"/><text fill="#000000" font-family="sans-serif" font-size="14" lengthAdjust="spacing" textLength="102.9971" x="1691.1915" y="358.1334">IUsuarioService</text></g><!--entity IMSV--><g class="entity" data-qualified-name="IMSV" data-source-line="34" id="ent0015"><ellipse cx="1199.69" cy="327.5983" fill="#FFF2CC" rx="8" ry="8" style="stroke:#B8860B;stroke-width:0.5;"/><text fill="#000000" font-family="sans-serif" font-size="14" lengthAdjust="spacing" textLength="86.0918" x="1156.6441" y="358.1334">IMesaService</text></g><!--entity IPRSV--><g class="entity" data-qualified-name="IPRSV" data-source-line="35" id="ent0016"><ellipse cx="1349.69" cy="327.5983" fill="#FFF2CC" rx="8" ry="8" style="stroke:#B8860B;stroke-width:0.5;"/><text fill="#000000" font-family="sans-serif" font-size="14" lengthAdjust="spacing" textLength="111.9385" x="1293.7208" y="358.1334">IProductoService</text></g><!--entity ICSV--><g class="entity" data-qualified-name="ICSV" data-source-line="36" id="ent0017"><ellipse cx="1554.69" cy="327.5983" fill="#FFF2CC" rx="8" ry="8" style="stroke:#B8860B;stroke-width:0.5;"/><text fill="#000000" font-family="sans-serif" font-size="14" lengthAdjust="spacing" textLength="116.6553" x="1496.3624" y="358.1334">ICategoriaService</text></g><!--entity IUREP--><g class="entity" data-qualified-name="IUREP" data-source-line="37" id="ent0018"><ellipse cx="2475.69" cy="327.5983" fill="#FFF2CC" rx="8" ry="8" style="stroke:#B8860B;stroke-width:0.5;"/><text fill="#000000" font-family="sans-serif" font-size="14" lengthAdjust="spacing" textLength="127.791" x="2411.7945" y="358.1334">IUsuarioRepository</text></g><!--entity IMREP--><g class="entity" data-qualified-name="IMREP" data-source-line="38" id="ent0019"><ellipse cx="2644.69" cy="327.5983" fill="#FFF2CC" rx="8" ry="8" style="stroke:#B8860B;stroke-width:0.5;"/><text fill="#000000" font-family="sans-serif" font-size="14" lengthAdjust="spacing" textLength="110.8857" x="2589.2471" y="358.1334">IMesaRepository</text></g><!--entity IPRREP--><g class="entity" data-qualified-name="IPRREP" data-source-line="39" id="ent0020"><ellipse cx="2818.69" cy="327.5983" fill="#FFF2CC" rx="8" ry="8" style="stroke:#B8860B;stroke-width:0.5;"/><text fill="#000000" font-family="sans-serif" font-size="14" lengthAdjust="spacing" textLength="136.7324" x="2750.3238" y="358.1334">IProductoRepository</text></g><!--entity ICAREP--><g class="entity" data-qualified-name="ICAREP" data-source-line="40" id="ent0021"><ellipse cx="3367.69" cy="327.5983" fill="#FFF2CC" rx="8" ry="8" style="stroke:#B8860B;stroke-width:0.5;"/><text fill="#000000" font-family="sans-serif" font-size="14" lengthAdjust="spacing" textLength="141.4492" x="3296.9654" y="358.1334">ICategoriaRepository</text></g><!--entity IPREP--><g class="entity" data-qualified-name="IPREP" data-source-line="41" id="ent0022"><ellipse cx="2997.69" cy="327.5983" fill="#FFF2CC" rx="8" ry="8" style="stroke:#B8860B;stroke-width:0.5;"/><text fill="#000000" font-family="sans-serif" font-size="14" lengthAdjust="spacing" textLength="121.9668" x="2936.7066" y="358.1334">IPedidoRepository</text></g><!--entity IFREP--><g class="entity" data-qualified-name="IFREP" data-source-line="42" id="ent0023"><ellipse cx="3550.69" cy="327.5983" fill="#FFF2CC" rx="8" ry="8" style="stroke:#B8860B;stroke-width:0.5;"/><text fill="#000000" font-family="sans-serif" font-size="14" lengthAdjust="spacing" textLength="125.9521" x="3487.7139" y="358.1334">IFacturaRepository</text></g><!--entity ICREP--><g class="entity" data-qualified-name="ICREP" data-source-line="43" id="ent0024"><ellipse cx="3177.69" cy="327.5983" fill="#FFF2CC" rx="8" ry="8" style="stroke:#B8860B;stroke-width:0.5;"/><text fill="#000000" font-family="sans-serif" font-size="14" lengthAdjust="spacing" textLength="139.2412" x="3108.0694" y="358.1334">IContadorRepository</text></g><!--entity IMONGO--><g class="entity" data-qualified-name="IMONGO" data-source-line="44" id="ent0025"><ellipse cx="3708.69" cy="327.5983" fill="#FFF2CC" rx="8" ry="8" style="stroke:#B8860B;stroke-width:0.5;"/><text fill="#000000" font-family="sans-serif" font-size="14" lengthAdjust="spacing" textLength="87.7119" x="3664.834" y="358.1334">MongoDriver</text></g><g class="entity" data-qualified-name="GMN63" data-source-line="88" id="ent0064"><path d="M784.76,43.4883 L784.76,84.1094 A0,0 0 0 0 784.76,84.1094 L891.69,84.1094 L895.69,145.0083 L899.69,84.1094 L1006.6379,84.1094 A0,0 0 0 0 1006.6379,84.1094 L1006.6379,53.4883 L996.6379,43.4883 L784.76,43.4883 A0,0 0 0 0 784.76,43.4883" fill="#FEFFDD" style="stroke:#181818;stroke-width:0.5;"/><path d="M996.6379,43.4883 L996.6379,53.4883 L1006.6379,53.4883 L996.6379,43.4883" fill="#FEFFDD" style="stroke:#181818;stroke-width:0.5;"/><text fill="#000000" font-family="sans-serif" font-size="13" lengthAdjust="spacing" textLength="189.7441" x="790.76" y="61.0566">Smartphone Android (mesero)</text><text fill="#000000" font-family="sans-serif" font-size="13" lengthAdjust="spacing" textLength="200.8779" x="790.76" y="76.3672">Tablet / PC caja (administrador)</text></g><g class="entity" data-qualified-name="GMN66" data-source-line="93" id="ent0067"><path d="M341.12,147.7283 L341.12,179.3583 L306.71,183.3583 L341.12,187.3583 L341.12,218.9705 A0,0 0 0 0 341.12,218.9705 L584.2626,218.9705 A0,0 0 0 0 584.2626,218.9705 L584.2626,157.7283 L574.2626,147.7283 L341.12,147.7283 A0,0 0 0 0 341.12,147.7283" fill="#FEFFDD" style="stroke:#181818;stroke-width:0.5;"/><path d="M574.2626,147.7283 L574.2626,157.7283 L584.2626,157.7283 L574.2626,147.7283" fill="#FEFFDD" style="stroke:#181818;stroke-width:0.5;"/><text fill="#000000" font-family="sans-serif" font-size="13" lengthAdjust="spacing" textLength="154.8765" x="347.12" y="165.2966">- JwtAuthenticationFilter</text><text fill="#000000" font-family="sans-serif" font-size="13" lengthAdjust="spacing" textLength="209.1807" x="347.12" y="180.6072">- JwtService (firma/valida HS256)</text><text fill="#000000" font-family="sans-serif" font-size="13" lengthAdjust="spacing" textLength="222.1426" x="347.12" y="195.9177">- BCryptPasswordEncoder (cost 10)</text><text fill="#000000" font-family="sans-serif" font-size="13" lengthAdjust="spacing" textLength="208.1523" x="347.12" y="211.2283">- @PreAuthorize granular por rol</text></g><g class="entity" data-qualified-name="GMN69" data-source-line="100" id="ent0070"><path d="M2636.81,155.3883 L2636.81,179.3583 L2602.57,183.3583 L2636.81,187.3583 L2636.81,211.3199 A0,0 0 0 0 2636.81,211.3199 L2906.581,211.3199 A0,0 0 0 0 2906.581,211.3199 L2906.581,165.3883 L2896.581,155.3883 L2636.81,155.3883 A0,0 0 0 0 2636.81,155.3883" fill="#FEFFDD" style="stroke:#181818;stroke-width:0.5;"/><path d="M2896.581,155.3883 L2896.581,165.3883 L2906.581,165.3883 L2896.581,155.3883" fill="#FEFFDD" style="stroke:#181818;stroke-width:0.5;"/><text fill="#000000" font-family="sans-serif" font-size="13" lengthAdjust="spacing" textLength="228.9727" x="2642.81" y="172.9566">Implementaciones: AuthServiceImpl,</text><text fill="#000000" font-family="sans-serif" font-size="13" lengthAdjust="spacing" textLength="244.6577" x="2642.81" y="188.2672">PedidoServiceImpl, FacturaServiceImpl,</text><text fill="#000000" font-family="sans-serif" font-size="13" lengthAdjust="spacing" textLength="248.771" x="2642.81" y="203.5777">ReporteServiceImpl, UsuarioServiceImpl</text></g><!--link API to IOAS--><g class="link" data-entity-1="ent0002" data-entity-2="ent0008" data-link-type="association" data-source-line="47" id="lnk26"><path d="M1319.73,208.7283 C1262.03,221.3683 1190.55,237.1483 1126.69,251.5983 C1002.05,279.8083 850.68,315.4883 812.68,324.4783" fill="none" id="API-IOAS" style="stroke:#181818;stroke-width:1;"/></g><!--link SEC to IJWT--><g class="link" data-entity-1="ent0003" data-entity-2="ent0009" data-link-type="association" data-source-line="48" id="lnk27"><path d="M235.89,215.2183 C328.99,251.4983 475.55,308.6183 512.84,323.1483" fill="none" id="SEC-IJWT" style="stroke:#181818;stroke-width:1;"/></g><!--link SVC to IAUTH--><g class="link" data-entity-1="ent0004" data-entity-2="ent0010" data-link-type="association" data-source-line="49" id="lnk28"><path d="M2284.89,187.1783 C2072.88,192.5483 1686.07,207.9383 1358.69,251.5983 C1307.42,258.4383 1180.58,284.8983 1130.69,298.5983 C1104.01,305.9283 1073.34,317.3883 1058.57,323.1083" fill="none" id="SVC-IAUTH" style="stroke:#181818;stroke-width:1;"/></g><!--link SVC to IPED--><g class="link" data-entity-1="ent0004" data-entity-2="ent0011" data-link-type="association" data-source-line="50" id="lnk29"><path d="M2338.15,215.2983 C2302.29,226.2383 2262.08,238.9683 2225.69,251.5983 C2205.89,258.4683 2201.83,262.7683 2181.69,268.5983 C2115.55,287.7483 2096.93,283.7183 2029.69,298.5983 C1990.3,307.3183 1943.65,319.2983 1924.53,324.2783" fill="none" id="SVC-IPED" style="stroke:#181818;stroke-width:1;"/></g><!--link SVC to IFAC--><g class="link" data-entity-1="ent0004" data-entity-2="ent0012" data-link-type="association" data-source-line="51" id="lnk30"><path d="M2442.23,215.0783 C2439.92,232.5583 2434.43,253.8283 2421.69,268.5983 C2386.83,309.0383 2318.84,322.0483 2294.57,325.5083" fill="none" id="SVC-IFAC" style="stroke:#181818;stroke-width:1;"/></g><!--link SVC to IREP--><g class="link" data-entity-1="ent0004" data-entity-2="ent0013" data-link-type="association" data-source-line="52" id="lnk31"><path d="M2428.37,215.1883 C2417.58,233.6283 2401.38,255.8683 2380.69,268.5983 C2315.35,308.8083 2285.59,281.9383 2210.69,298.5983 C2175.1,306.5183 2133.39,318.6183 2115.53,323.9383" fill="none" id="SVC-IREP" style="stroke:#181818;stroke-width:1;"/></g><!--link SVC to IUSV--><g class="link" data-entity-1="ent0004" data-entity-2="ent0014" data-link-type="association" data-source-line="53" id="lnk32"><path d="M2285.03,208.7883 C2211.7,220.6783 2123.56,235.7983 2044.69,251.5983 C1954.32,269.7083 1931.99,275.7183 1842.69,298.5983 C1808.81,307.2783 1768.86,318.8783 1751.49,323.9983" fill="none" id="SVC-IUSV" style="stroke:#181818;stroke-width:1;"/></g><!--link SVC to IMSV--><g class="link" data-entity-1="ent0004" data-entity-2="ent0015" data-link-type="association" data-source-line="54" id="lnk33"><path d="M2285.08,189.8383 C2054.49,198.7883 1638.24,218.8883 1491.69,251.5983 C1471.23,256.1683 1467.91,263.0583 1447.69,268.5983 C1369.9,289.9083 1346.31,276.6383 1268.69,298.5983 C1246.3,304.9383 1221.29,316.1983 1208.41,322.3383" fill="none" id="SVC-IMSV" style="stroke:#181818;stroke-width:1;"/></g><!--link SVC to IPRSV--><g class="link" data-entity-1="ent0004" data-entity-2="ent0016" data-link-type="association" data-source-line="55" id="lnk34"><path d="M2284.8,189.7583 C2130.43,197.0383 1889.92,213.7783 1684.69,251.5983 C1657.44,256.6183 1651.65,262.1683 1624.69,268.5983 C1556.87,284.7883 1538.9,284.0683 1470.69,298.5983 C1428.52,307.5883 1378.39,319.6183 1358.48,324.4583" fill="none" id="SVC-IPRSV" style="stroke:#181818;stroke-width:1;"/></g><!--link SVC to ICSV--><g class="link" data-entity-1="ent0004" data-entity-2="ent0017" data-link-type="association" data-source-line="56" id="lnk35"><path d="M2285.03,197.9483 C2168.73,209.0983 2007.27,227.0483 1866.69,251.5983 C1776.32,267.3783 1754.84,276.9283 1665.69,298.5983 C1627.65,307.8483 1582.43,319.4383 1563.6,324.2983" fill="none" id="SVC-ICSV" style="stroke:#181818;stroke-width:1;"/></g><!--link PERS to IUREP--><g class="link" data-entity-1="ent0005" data-entity-2="ent0018" data-link-type="association" data-source-line="57" id="lnk36"><path d="M3179.52,194.6683 C3045.61,208.9183 2814.14,234.7683 2730.69,251.5983 C2632.08,271.4883 2516.5,311.8883 2484.36,323.4483" fill="none" id="PERS-IUREP" style="stroke:#181818;stroke-width:1;"/></g><!--link PERS to IMREP--><g class="link" data-entity-1="ent0005" data-entity-2="ent0019" data-link-type="association" data-source-line="58" id="lnk37"><path d="M3179.42,197.8683 C3099.14,209.6083 2983.46,228.3583 2883.69,251.5983 C2812.34,268.2183 2795.44,276.1783 2725.69,298.5983 C2699.35,307.0683 2668.53,318.0083 2653.64,323.3583" fill="none" id="PERS-IMREP" style="stroke:#181818;stroke-width:1;"/></g><!--link PERS to IPRREP--><g class="link" data-entity-1="ent0005" data-entity-2="ent0020" data-link-type="association" data-source-line="59" id="lnk38"><path d="M3179.43,209.5883 C3135.4,221.3883 3083.16,236.2083 3036.69,251.5983 C3016.79,258.1883 3012.42,261.5083 2992.69,268.5983 C2929.77,291.2283 2852.99,315.7583 2827.44,323.8483" fill="none" id="PERS-IPRREP" style="stroke:#181818;stroke-width:1;"/></g><!--link PERS to ICAREP--><g class="link" data-entity-1="ent0005" data-entity-2="ent0021" data-link-type="association" data-source-line="60" id="lnk39"><path d="M3378.08,191.5683 C3418.55,199.9883 3461.63,217.1483 3486.69,251.5983 C3518.16,294.8383 3408.7,318.9883 3376.41,325.0583" fill="none" id="PERS-ICAREP" style="stroke:#181818;stroke-width:1;"/></g><!--link PERS to IPREP--><g class="link" data-entity-1="ent0005" data-entity-2="ent0022" data-link-type="association" data-source-line="61" id="lnk40"><path d="M3249.39,215.2383 C3231.09,232.9783 3206.22,254.4883 3180.69,268.5983 C3141.2,290.4283 3126.71,284.9483 3083.69,298.5983 C3055.26,307.6283 3021.66,318.6783 3006.23,323.7783" fill="none" id="PERS-IPREP" style="stroke:#181818;stroke-width:1;"/></g><!--link PERS to IFREP--><g class="link" data-entity-1="ent0005" data-entity-2="ent0023" data-link-type="association" data-source-line="62" id="lnk41"><path d="M3378.14,193.4983 C3424.36,202.1783 3477.43,219.0183 3515.69,251.5983 C3536.92,269.6683 3546.08,303.4183 3549.27,318.7083" fill="none" id="PERS-IFREP" style="stroke:#181818;stroke-width:1;"/></g><!--link PERS to ICREP--><g class="link" data-entity-1="ent0005" data-entity-2="ent0024" data-link-type="association" data-source-line="63" id="lnk42"><path d="M3318.12,215.0583 C3333.94,231.1483 3345.86,251.0983 3333.69,268.5983 C3324.71,281.5283 3217.9,314.4983 3186.39,323.9983" fill="none" id="PERS-ICREP" style="stroke:#181818;stroke-width:1;"/></g><!--link DB to IMONGO--><g class="link" data-entity-1="ent0007" data-entity-2="ent0025" data-link-type="association" data-source-line="64" id="lnk43"><path d="M3710.38,206.5783 C3709.93,238.9283 3709.1,297.4383 3708.81,318.6483" fill="none" id="DB-IMONGO" style="stroke:#181818;stroke-width:1;"/></g><!--link CLI to IOAS--><g class="link" data-entity-1="ent0001" data-entity-2="ent0008" data-source-line="67" id="lnk44"><path d="M825.6819,221.1864 C812.4219,230.8964 808.22,237.0583 800.69,251.5983 C789.32,273.5883 793.5181,294.697 797.9681,309.047" fill="none" id="CLI-IOAS" style="stroke:#181818;stroke-width:1;stroke-dasharray:7,7;"/><path d="M826.2699,210.2735 A9,9 0 0 0 836.2631 223.9203" fill="none" style="stroke:#181818;stroke-width:1.5;"/><path d="M808.096,313.1533 A9,9 0 0 0 791.9405 318.1632" fill="none" style="stroke:#181818;stroke-width:1.5;"/><text fill="#000000" font-family="sans-serif" font-size="13" lengthAdjust="spacing" textLength="56.7861" x="801.69" y="265.1666">consume</text></g><!--link SWG to IOAS--><g class="link" data-entity-1="ent0006" data-entity-2="ent0008" data-source-line="68" id="lnk45"><path d="M714.7856,224.8852 C718.1456,241.7352 722.17,252.5883 732.69,268.5983 C749.14,293.5983 771.0393,308.1938 786.1293,316.8238" fill="none" id="SWG-IOAS" style="stroke:#181818;stroke-width:1;stroke-dasharray:7,7;"/><path d="M705.138,219.7509 A9,9 0 0 0 721.7259 216.4432" fill="none" style="stroke:#181818;stroke-width:1.5;"/><path d="M796.3365,312.9187 A9,9 0 0 0 787.9394 327.6016" fill="none" style="stroke:#181818;stroke-width:1.5;"/><text fill="#000000" font-family="sans-serif" font-size="13" lengthAdjust="spacing" textLength="53.2124" x="733.69" y="265.1666">describe</text></g><!--link API to IJWT--><g class="link" data-entity-1="ent0002" data-entity-2="ent0009" data-source-line="69" id="lnk46"><path d="M1309.856,202.1105 C1218.766,215.4805 1096.81,233.6183 981.69,251.5983 C799.42,280.0783 586.8018,315.6612 540.3218,323.4712" fill="none" id="API-IJWT" style="stroke:#181818;stroke-width:1;stroke-dasharray:7,7;"/><path d="M1315.4763,192.7377 A9,9 0 0 0 1317.9326 209.4729" fill="none" style="stroke:#181818;stroke-width:1.5;"/><path d="M534.897,332.9585 A9,9 0 0 0 532.0942 316.2779" fill="none" style="stroke:#181818;stroke-width:1.5;"/><text fill="#000000" font-family="sans-serif" font-size="13" lengthAdjust="spacing" textLength="64.2827" x="982.69" y="265.1666">valida JWT</text></g><!--link API to IAUTH--><g class="link" data-entity-1="ent0002" data-entity-2="ent0010" data-source-line="70" id="lnk47"><path d="M1310.0818,206.019 C1261.2118,216.729 1213.75,230.1483 1164.69,251.5983 C1121.89,270.3183 1085.0189,298.0791 1066.4289,312.9991" fill="none" id="API-IAUTH" style="stroke:#181818;stroke-width:1;stroke-dasharray:7,7;"/><path d="M1315.0327,196.2761 A9,9 0 0 0 1318.6536 212.7984" fill="none" style="stroke:#181818;stroke-width:1.5;"/><path d="M1066.3242,323.9273 A9,9 0 0 0 1055.7371 310.7359" fill="none" style="stroke:#181818;stroke-width:1.5;"/><text fill="#000000" font-family="sans-serif" font-size="13" lengthAdjust="spacing" textLength="77.4985" x="1165.69" y="265.1666">delega login</text></g><!--link API to IPED--><g class="link" data-entity-1="ent0002" data-entity-2="ent0011" data-source-line="71" id="lnk48"><path d="M1553.368,201.228 C1618.678,211.948 1692.18,227.1783 1763.69,251.5983 C1820.78,271.0983 1875.3328,302.3172 1898.2228,316.0372" fill="none" id="API-IPED" style="stroke:#181818;stroke-width:1;stroke-dasharray:7,7;"/><path d="M1545.1677,208.4524 A9,9 0 0 0 1547.9074 191.7613" fill="none" style="stroke:#181818;stroke-width:1.5;"/><path d="M1908.5077,312.3418 A9,9 0 0 0 1899.8118 326.8497" fill="none" style="stroke:#181818;stroke-width:1.5;"/><text fill="#000000" font-family="sans-serif" font-size="13" lengthAdjust="spacing" textLength="95.9829" x="1803.58" y="265.1666">delega pedidos</text></g><!--link API to IFAC--><g class="link" data-entity-1="ent0002" data-entity-2="ent0012" data-source-line="72" id="lnk49"><path d="M1553.6581,188.7362 C1682.4281,195.0262 1889.51,210.6883 2071.69,251.5983 C2153.9,270.0583 2239.0555,306.0439 2267.7855,318.6739" fill="none" id="API-IFAC" style="stroke:#181818;stroke-width:1;stroke-dasharray:7,7;"/><path d="M1546.3319,196.8456 A9,9 0 0 0 1547.1571 179.9513" fill="none" style="stroke:#181818;stroke-width:1.5;"/><path d="M2277.5256,313.7174 A9,9 0 0 0 2270.7186 329.2016" fill="none" style="stroke:#181818;stroke-width:1.5;"/><text fill="#000000" font-family="sans-serif" font-size="13" lengthAdjust="spacing" textLength="116.3398" x="2132.71" y="265.1666">delega facturaci&#243;n</text></g><!--link API to IREP--><g class="link" data-entity-1="ent0002" data-entity-2="ent0013" data-source-line="73" id="lnk50"><path d="M1553.6046,194.1105 C1650.9346,203.4205 1785.2,220.2683 1907.69,251.5983 C1983.53,270.9883 2061.1511,305.5062 2088.7211,318.2362" fill="none" id="API-IREP" style="stroke:#181818;stroke-width:1;stroke-dasharray:7,7;"/><path d="M1545.9089,201.8702 A9,9 0 0 0 1547.5195 185.0326" fill="none" style="stroke:#181818;stroke-width:1.5;"/><path d="M2098.5507,313.4596 A9,9 0 0 0 2091.46 328.8161" fill="none" style="stroke:#181818;stroke-width:1.5;"/><text fill="#000000" font-family="sans-serif" font-size="13" lengthAdjust="spacing" textLength="98.6045" x="1964.55" y="265.1666">delega reportes</text></g><!--link API to IUSV--><g class="link" data-entity-1="ent0002" data-entity-2="ent0014" data-source-line="74" id="lnk51"><path d="M1544.0948,218.5651 C1573.7348,228.7751 1596.27,237.8383 1624.69,251.5983 C1667.96,272.5383 1706.8476,300.0052 1725.8876,314.0752" fill="none" id="API-IUSV" style="stroke:#181818;stroke-width:1;stroke-dasharray:7,7;"/><path d="M1534.796,224.3069 A9,9 0 0 0 1540.3048 208.3147" fill="none" style="stroke:#181818;stroke-width:1.5;"/><path d="M1736.4806,311.3873 A9,9 0 0 0 1726.4282 324.9905" fill="none" style="stroke:#181818;stroke-width:1.5;"/><text fill="#000000" font-family="sans-serif" font-size="13" lengthAdjust="spacing" textLength="99.4551" x="1656.1" y="265.1666">delega usuarios</text></g><!--link API to IMSV--><g class="link" data-entity-1="ent0002" data-entity-2="ent0015" data-source-line="75" id="lnk52"><path d="M1331.1085,219.1203 C1307.7485,228.9903 1292.56,237.2683 1271.69,251.5983 C1242.83,271.4183 1222.3934,296.2858 1211.2634,311.0358" fill="none" id="API-IMSV" style="stroke:#181818;stroke-width:1;stroke-dasharray:7,7;"/><path d="M1334.1929,208.6359 A9,9 0 0 0 1340.7761 224.2167" fill="none" style="stroke:#181818;stroke-width:1.5;"/><path d="M1213.845,321.6552 A9,9 0 0 0 1200.3432 311.4671" fill="none" style="stroke:#181818;stroke-width:1.5;"/><text fill="#000000" font-family="sans-serif" font-size="13" lengthAdjust="spacing" textLength="85.6362" x="1272.69" y="265.1666">delega mesas</text></g><!--link API to IPRSV--><g class="link" data-entity-1="ent0002" data-entity-2="ent0016" data-source-line="76" id="lnk53"><path d="M1393.8682,222.6551 C1384.2382,233.4651 1380.93,238.6883 1373.69,251.5983 C1361,274.2583 1355.8738,294.789 1353.0738,308.919" fill="none" id="API-IPRSV" style="stroke:#181818;stroke-width:1;stroke-dasharray:7,7;"/><path d="M1392.1576,211.8611 A9,9 0 0 0 1404.7873 223.1123" fill="none" style="stroke:#181818;stroke-width:1.5;"/><path d="M1360.0243,317.3527 A9,9 0 0 0 1343.4324 314.0649" fill="none" style="stroke:#181818;stroke-width:1.5;"/><text fill="#000000" font-family="sans-serif" font-size="13" lengthAdjust="spacing" textLength="109.6938" x="1374.69" y="265.1666">delega productos</text></g><!--link API to ICSV--><g class="link" data-entity-1="ent0002" data-entity-2="ent0017" data-source-line="77" id="lnk54"><path d="M1464.9209,222.7824 C1493.7509,256.1224 1524.7083,291.9248 1541.4183,311.2448" fill="none" id="API-ICSV" style="stroke:#181818;stroke-width:1;stroke-dasharray:7,7;"/><path d="M1453.9962,223.0785 A9,9 0 0 0 1466.7906 212.0149" fill="none" style="stroke:#181818;stroke-width:1.5;"/><path d="M1552.343,310.9476 A9,9 0 0 0 1539.5497 322.0126" fill="none" style="stroke:#181818;stroke-width:1.5;"/><text fill="#000000" font-family="sans-serif" font-size="13" lengthAdjust="spacing" textLength="110.7412" x="1505.21" y="265.1666">delega categor&#237;as</text></g><!--link SVC to IUREP--><g class="link" data-entity-1="ent0004" data-entity-2="ent0018" data-source-line="78" id="lnk55"><path d="M2455.9485,224.9245 C2459.2285,236.2645 2459.98,239.6483 2462.69,251.5983 C2468.2,275.8283 2471.2107,295.0195 2473.1807,308.7595" fill="none" id="SVC-IUREP" style="stroke:#181818;stroke-width:1;stroke-dasharray:7,7;"/><path d="M2445.9011,220.6251 A9,9 0 0 0 2462.1495 215.9254" fill="none" style="stroke:#181818;stroke-width:1.5;"/><path d="M2482.5348,314.411 A9,9 0 0 0 2465.7915 316.8116" fill="none" style="stroke:#181818;stroke-width:1.5;"/><text fill="#000000" font-family="sans-serif" font-size="13" lengthAdjust="spacing" textLength="70.0908" x="2467.13" y="265.1666">lee/escribe</text></g><!--link SVC to IMREP--><g class="link" data-entity-1="ent0004" data-entity-2="ent0019" data-source-line="79" id="lnk56"><path d="M2500.2397,220.6608 C2517.3997,231.8808 2528.38,239.3483 2545.69,251.5983 C2579.67,275.6283 2610.8386,299.8651 2627.9786,313.3851" fill="none" id="SVC-IMREP" style="stroke:#181818;stroke-width:1;stroke-dasharray:7,7;"/><path d="M2489.8181,223.9513 A9,9 0 0 0 2499.0746 209.7944" fill="none" style="stroke:#181818;stroke-width:1.5;"/><path d="M2638.6509,311.0318 A9,9 0 0 0 2628.1755 324.312" fill="none" style="stroke:#181818;stroke-width:1.5;"/><text fill="#000000" font-family="sans-serif" font-size="13" lengthAdjust="spacing" textLength="70.0908" x="2568.75" y="265.1666">lee/escribe</text></g><!--link SVC to IPRREP--><g class="link" data-entity-1="ent0004" data-entity-2="ent0020" data-source-line="80" id="lnk57"><path d="M2553.4792,218.4027 C2586.7292,229.2227 2614.26,238.7883 2647.69,251.5983 C2710.96,275.8383 2775.8708,306.1902 2800.8908,318.1002" fill="none" id="SVC-IPRREP" style="stroke:#181818;stroke-width:1;stroke-dasharray:7,7;"/><path d="M2544.2801,224.3029 A9,9 0 0 0 2549.5141 208.2187" fill="none" style="stroke:#181818;stroke-width:1.5;"/><path d="M2810.7756,313.439 A9,9 0 0 0 2803.5057 328.7115" fill="none" style="stroke:#181818;stroke-width:1.5;"/><text fill="#000000" font-family="sans-serif" font-size="13" lengthAdjust="spacing" textLength="70.0908" x="2686.67" y="265.1666">lee/escribe</text></g><!--link SVC to ICAREP--><g class="link" data-entity-1="ent0004" data-entity-2="ent0021" data-source-line="81" id="lnk58"><path d="M2590.1106,217.0567 C2603.3906,219.4567 2606.85,219.8383 2619.69,221.5983 C2828.84,250.1883 2885.3,217.9683 3093.69,251.5983 C3200.32,268.8083 3315.613,308.1218 3349.433,320.0918" fill="none" id="SVC-ICAREP" style="stroke:#181818;stroke-width:1;stroke-dasharray:7,7;"/><path d="M2581.7951,224.1481 A9,9 0 0 0 2584.8032 207.5033" fill="none" style="stroke:#181818;stroke-width:1.5;"/><path d="M3358.78,314.4286 A9,9 0 0 0 3353.1364 330.3738" fill="none" style="stroke:#181818;stroke-width:1.5;"/><text fill="#000000" font-family="sans-serif" font-size="13" lengthAdjust="spacing" textLength="70.0908" x="3171.05" y="265.1666">lee/escribe</text></g><!--link SVC to IPREP--><g class="link" data-entity-1="ent0004" data-entity-2="ent0022" data-source-line="82" id="lnk59"><path d="M2599.4453,217.3694 C2609.6053,219.5094 2609.91,219.5583 2619.69,221.5983 C2684.54,235.1183 2701.61,234.8183 2765.69,251.5983 C2832.05,268.9683 2847.45,277.4283 2912.69,298.5983 C2940.48,307.6183 2963.8101,315.3352 2979.2801,320.4752" fill="none" id="SVC-IPREP" style="stroke:#181818;stroke-width:1;stroke-dasharray:7,7;"/><path d="M2590.929,224.2184 A9,9 0 0 0 2594.4152 207.6671" fill="none" style="stroke:#181818;stroke-width:1.5;"/><path d="M2988.5155,314.6319 A9,9 0 0 0 2983.1822 330.6835" fill="none" style="stroke:#181818;stroke-width:1.5;"/><text fill="#000000" font-family="sans-serif" font-size="13" lengthAdjust="spacing" textLength="70.0908" x="2823.25" y="265.1666">lee/escribe</text></g><!--link SVC to IFREP--><g class="link" data-entity-1="ent0004" data-entity-2="ent0023" data-source-line="83" id="lnk60"><path d="M2589.1243,217.0759 C2602.7343,219.5059 2606.53,219.8983 2619.69,221.5983 C2897.72,257.3983 2971.81,214.7383 3249.69,251.5983 C3346.23,264.4083 3369.69,273.2083 3463.69,298.5983 C3492.8,306.4583 3517.1981,314.7558 3532.6981,320.2158" fill="none" id="SVC-IFREP" style="stroke:#181818;stroke-width:1;stroke-dasharray:7,7;"/><path d="M2580.8238,224.1849 A9,9 0 0 0 2583.7968 207.5337" fill="none" style="stroke:#181818;stroke-width:1.5;"/><path d="M3542.0366,314.5388 A9,9 0 0 0 3536.4168 330.4924" fill="none" style="stroke:#181818;stroke-width:1.5;"/><text fill="#000000" font-family="sans-serif" font-size="13" lengthAdjust="spacing" textLength="70.0908" x="3347.91" y="265.1666">lee/escribe</text></g><!--link SVC to ICREP--><g class="link" data-entity-1="ent0004" data-entity-2="ent0024" data-source-line="84" id="lnk61"><path d="M2593.5382,217.1841 C2605.6782,219.4641 2607.97,219.7383 2619.69,221.5983 C2744.62,241.3883 2778.25,228.9783 2902.69,251.5983 C2984.47,266.4683 3003.63,276.2883 3083.69,298.5983 C3115.19,307.3783 3142.7663,315.7841 3159.3563,320.9141" fill="none" id="SVC-ICREP" style="stroke:#181818;stroke-width:1;stroke-dasharray:7,7;"/><path d="M2585.1742,224.2184 A9,9 0 0 0 2588.2963 207.5945" fill="none" style="stroke:#181818;stroke-width:1.5;"/><path d="M3168.4677,314.8792 A9,9 0 0 0 3163.4708 331.0387" fill="none" style="stroke:#181818;stroke-width:1.5;"/><text fill="#000000" font-family="sans-serif" font-size="13" lengthAdjust="spacing" textLength="105.8916" x="2979.67" y="265.1666">siguiente factura</text></g><!--link PERS to IMONGO--><g class="link" data-entity-1="ent0005" data-entity-2="ent0025" data-source-line="85" id="lnk62"><path d="M3387.609,206.3806 C3439.259,217.9306 3493.27,231.9183 3548.69,251.5983 C3608.54,272.8483 3667.4468,303.9691 3691.1568,316.9391" fill="none" id="PERS-IMONGO" style="stroke:#181818;stroke-width:1;stroke-dasharray:7,7;"/><path d="M3379.0084,213.1234 A9,9 0 0 0 3382.6996 196.6166" fill="none" style="stroke:#181818;stroke-width:1.5;"/><path d="M3701.2882,312.8414 A9,9 0 0 0 3693.1707 327.6807" fill="none" style="stroke:#181818;stroke-width:1.5;"/><text fill="#000000" font-family="sans-serif" font-size="13" lengthAdjust="spacing" textLength="78.5396" x="3590.25" y="265.1666">driver oficial</text></g><?plantuml-src VLR1RkCs4BthAmRfeJRgRBR1Rce4A51RbdQzjMFLifrBBup4A6naKI0f1zwYG3-Ylz7JVaB-f5_I8IdPefn49vBp-3YQUPoXOYgdC64a4sHB8ANWyst92reeAk6_l_-1c2UFL4dOmupdEIjvAJrFFhAY9BW5aWOUgpqoLTlyyYKh_Ea1Z4doc0bU5QdFSoxWks0OVWWdsi95IaMzUkb_38SJxwyM3qDtn3r9wCiyOHXU-dwNPpmSNhqVEpmfKUIEo5Te9YDqw8JcoXy6un1fF98eN3ZpSwR30xVqxcB-_6t7yZCW4lpPrFEEFtmsYgQm3EBLxqKlBWKhCfXlVFW10rmeWQ6aGlRDHWIszyKqgmHBINhS6DC4bzGUTt-vNK78SWm7JiQ-s9VAiiI1xxA87KiObpgdDpJZE4R2KQKU1X3HbALy027-KIN809Qqv4BH0QnbHGJZDUN6eOpGOoOLBH96ZhvDCAGmvqN69sExBGgMiUFA4yaoz7SznLtIx4fvSivBMf2IrKVTVl8EoJchwU0dOvkCFUzx-BdrmVHc5Ip3aH_4qCiRMK8f-0uT9BBleBsZUiuMU2Z6EovfOhYdYr7SjdzvKYl-I8iDoJ45Yl72mZ3iRTXKnz66c5h0QBtwx21iZ1rC54mSI1r-1uC_vM3gp3YOPH0vc3ff3cOTRnpCd4hte7a740cULYXmr-Db1-KJXLeIpENoEwZQ8UsxP7XdzhLFNSUrKrtGl0jg7Ei2esKNUN2k2_L79wGcEwUK7LYTeIukF3aPxpH9kJWvk0EqmXPiHqNzjukRJuiJUSyMizaqMaIexiCzeX0j5viWQ6hXrux8TRavFxU2nbfWnbgrU8dDs0YqcMWbDcEjk6QitMt6Ma7DUDuQ6qqq4vrvVT_j3htzC9ixCvkjmzHcf6Ljpq8NgcTO30pdY-6A5_wlmSeDrZBuRJqDbg-62wirzD-zwvc0mJLsga9MM-fX8NBMKoeJmUweYQyrw19y3JjJ8NGzRfbqaCscd6O4SfwnecN5g1-DfL6WR9an4KVplLLUmfw_jIam5aUCiBMXpO59EzehUmtRzddRliNhrpRgpBOShEzT6-6t0OczRi__8edMG-s1TJ6dzA89tT4uVyje9FAgrIZcZRrl6CCtUQrHigooRRsEl1LWxRQMdVvnStE1tsDd9Rdd5HpnYfUuOje_GBmbGfKFA48O5QdWB8KUXfaAtaVhYjpbLC45H3v6xmy2FP9kMO4zI-ZgqVTeaO8chQa5onwK9jVD7U0Si3tfpeD-iiHq9_iKQ6nrKORUFHDRSb5Bz7Dy-V6gRp3smH0HAP_mYHCK2STtZhutKi6FxotcbqXGVGWMqgyKy5rOL3aHW583VBQyxk96kpZTbZdTed-eN0o2l8PMfzJ60OASrcWMmMs53T1jVXRfDZkzTd3fVm00?></g></svg>