<svg xmlns="http://www.w3.org/2000/svg" xmlns:xlink="http://www.w3.org/1999/xlink" contentStyleType="text/css" data-diagram-type="DESCRIPTION" height="234px" preserveAspectRatio="none" style="width:711px;height:234px;background:#FFFFFF;" version="1.1" viewBox="0 0 711 234" width="711px" zoomAndPan="magnify"><?plantuml 1.2026.5?><defs/><g><g class="title" data-source-line="1"><text fill="#000000" font-family="sans-serif" font-size="14" font-weight="700" lengthAdjust="spacing" textLength="381.4727" x="161.6564" y="23.5352">Diagrama de Contexto &#8212; Sistema Monta&#241;a Margarita</text></g><!--entity SYS--><g class="entity" data-qualified-name="SYS" data-source-line="18" id="ent0001"><ellipse cx="433.73" cy="78.7305" fill="#F1F1F1" rx="8" ry="8" style="stroke:#181818;stroke-width:0.5;"/><text fill="#000000" font-family="sans-serif" font-size="14" lengthAdjust="spacing" textLength="52.5615" x="369.7866" y="109.2656">Sistema</text><text fill="#000000" font-family="sans-serif" font-size="14" lengthAdjust="spacing" textLength="127.8867" x="369.7866" y="125.7539">Monta&#241;a Margarita</text></g><!--entity M--><g class="entity" data-qualified-name="M" data-source-line="21" id="ent0002"><rect fill="#E8F4FD" height="34.1328" rx="2.5" ry="2.5" style="stroke:#2C5F8D;stroke-width:0.5;" width="62.1055" x="635.68" y="61.6605"/><text fill="#000000" font-family="sans-serif" font-size="12" lengthAdjust="spacing" textLength="42.1055" x="645.68" y="83.262">Mesero</text></g><!--entity A--><g class="entity" data-qualified-name="A" data-source-line="22" id="ent0003"><rect fill="#E8F4FD" height="48.2656" rx="2.5" ry="2.5" style="stroke:#2C5F8D;stroke-width:0.5;" width="145.4668" x="7" y="54.5905"/><text fill="#000000" font-family="sans-serif" font-size="12" lengthAdjust="spacing" textLength="83.3965" x="17" y="76.192">Administrador</text><text fill="#000000" font-family="sans-serif" font-size="12" lengthAdjust="spacing" textLength="125.4668" x="17" y="90.3248">(Propietario / Esposa)</text></g><g class="entity" data-qualified-name="GMN10" data-source-line="32" id="ent0011"><path d="M281.43,163.8605 L281.43,219.7921 A0,0 0 0 0 281.43,219.7921 L586.0369,219.7921 A0,0 0 0 0 586.0369,219.7921 L586.0369,173.8605 L576.0369,163.8605 L437.73,163.8605 L433.73,88.0805 L429.73,163.8605 L281.43,163.8605 A0,0 0 0 0 281.43,163.8605" fill="#FEFFDD" style="stroke:#181818;stroke-width:0.5;"/><path d="M576.0369,163.8605 L576.0369,173.8605 L586.0369,173.8605 L576.0369,163.8605" fill="#FEFFDD" style="stroke:#181818;stroke-width:0.5;"/><text fill="#000000" font-family="sans-serif" font-size="13" lengthAdjust="spacing" textLength="249.0122" x="287.43" y="181.4288">Backend REST (Java 17 + Spring Boot 3)</text><text fill="#000000" font-family="sans-serif" font-size="13" lengthAdjust="spacing" textLength="239.167" x="287.43" y="196.7394">con persistencia interna en MongoDB.</text><text fill="#000000" font-family="sans-serif" font-size="13" lengthAdjust="spacing" textLength="283.6069" x="287.43" y="212.0499">Opera localmente sobre LAN del restaurante.</text></g><!--link M to SYS--><g class="link" data-entity-1="ent0002" data-entity-2="ent0001" data-link-type="dependency" data-source-line="25" id="lnk4"><path d="M635.18,94.3805 C616.41,103.7005 596.21,113.7305 596.21,113.7305 C596.21,113.7305 482.21,113.7305 482.21,113.7305 C482.21,113.7305 461.2242,98.5668 447.1342,88.3968" fill="none" id="M-to-SYS" style="stroke:#181818;stroke-width:1;"/><polygon fill="#181818" points="443.08,85.4705,448.0366,93.9812,447.1342,88.3968,452.7187,87.4944,443.08,85.4705" style="stroke:#181818;stroke-width:1;stroke-linejoin:miter;stroke-miterlimit:10;"/><text fill="#000000" font-family="sans-serif" font-size="13" lengthAdjust="spacing" textLength="112.4487" x="483.21" y="95.2988">Captura, modifica</text><text fill="#000000" font-family="sans-serif" font-size="13" lengthAdjust="spacing" textLength="100.6548" x="489.107" y="110.6094">y cierra pedidos</text></g><!--link SYS to M--><g class="link" data-entity-1="ent0001" data-entity-2="ent0002" data-link-type="dependency" data-source-line="26" id="lnk5"><path d="M443.16,78.7305 C475.34,78.7305 576.86,78.7305 630.42,78.7305" fill="none" id="SYS-to-M" style="stroke:#181818;stroke-width:1;"/><polygon fill="#181818" points="635.42,78.7305,626.42,74.7305,630.42,78.7305,626.42,82.7305,635.42,78.7305" style="stroke:#181818;stroke-width:1;stroke-linejoin:miter;stroke-miterlimit:10;"/><text fill="#000000" font-family="sans-serif" font-size="13" lengthAdjust="spacing" textLength="109.459" x="484.563" y="57.2988">Estado de mesas,</text><text fill="#000000" font-family="sans-serif" font-size="13" lengthAdjust="spacing" textLength="156.165" x="461.21" y="72.6094">confirmaci&#243;n de pedidos</text></g><!--reverse link SYS to A--><g class="link" data-entity-1="ent0001" data-entity-2="ent0003" data-link-type="dependency" data-source-line="28" id="lnk7"><path d="M420.1873,88.371 C405.9073,98.541 384.6,113.7305 384.6,113.7305 C384.6,113.7305 192.6,113.7305 192.6,113.7305 C192.6,113.7305 174.51,108.1105 152.81,101.3905" fill="none" id="SYS-backto-A" style="stroke:#181818;stroke-width:1;"/><polygon fill="#181818" points="424.26,85.4705,414.6087,87.4332,420.1873,88.371,419.2495,93.9496,424.26,85.4705" style="stroke:#181818;stroke-width:1;stroke-linejoin:miter;stroke-miterlimit:10;"/><text fill="#000000" font-family="sans-serif" font-size="13" lengthAdjust="spacing" textLength="159.5928" x="209.0343" y="95.2988">Factura, cancela pedidos,</text><text fill="#000000" font-family="sans-serif" font-size="13" lengthAdjust="spacing" textLength="190.4614" x="193.6" y="110.6094">gestiona usuarios y productos</text></g><!--reverse link A to SYS--><g class="link" data-entity-1="ent0003" data-entity-2="ent0001" data-link-type="dependency" data-source-line="29" id="lnk9"><path d="M157.65,78.7305 C247.11,78.7305 386.59,78.7305 424.42,78.7305" fill="none" id="A-backto-SYS" style="stroke:#181818;stroke-width:1;"/><polygon fill="#181818" points="152.65,78.7305,161.65,82.7305,157.65,78.7305,161.65,74.7305,152.65,78.7305" style="stroke:#181818;stroke-width:1;stroke-linejoin:miter;stroke-miterlimit:10;"/><text fill="#000000" font-family="sans-serif" font-size="13" lengthAdjust="spacing" textLength="124.1538" x="226.5895" y="57.2988">Reportes de ventas,</text><text fill="#000000" font-family="sans-serif" font-size="13" lengthAdjust="spacing" textLength="236.1328" x="170.6" y="72.6094">historial, facturas, exportaciones CSV</text></g><?plantuml-src TLDTRXCn47xVKup20wr82Yq58YIGDfjTAQX9K3P2GihBr3lPMDtrh6odD20adZW15q4SeJVfIHYdIPiGuITxVhxlcnzxxIk2liRIOerG42HiFDruXhiVlo3NpfFOXsB4szzoGLkYrHwZo5rfqw2aGQKD-LL3q72r2eyTdrjWmL-qAM6EbTlrA6sLS7-B07gehahBIrCaNB659rcMdIL9yB0jo6wilMxtzOkUM3EHa-kl1AVdsvTV2TObLqNqVOV3al9eol_HfDtiFEl_ItEMlCgw_JsQCq6DdiAxdGEZSNyCIJgQJkABFK-qgQorwTxC7BQl1UWW_vmVeCR9T3n9S-WF9gbSyttantfQGt9aUOqptBN7HQsD45lfkvsPeu-M6qrUM1cUG-eQTdYyJeiFo0UZQJg9asGm7ec4jHIu-obhCCYdwJ3UrpA4ZjNbmdVUXqBWBIJO-AN5DjHSwBbMKlXAfapM8ZHKw89T528VqeQIb3elGiFYrUJGjMT6iPbhMwFIjtzCS6npenWw5SqV2JDKzuGAZQBgWKL0Id9Uiq5OkcKetS4A6il5KlcjYWrKB40JQjXwSe7jccHM0M8XJMIhiMhBwgw9N1le9aIADZOIdkIVeiYm3vldFTV0y_LGxrUDJ04ooYaSVS1hXDCty0poneQ_q6FsyF9O0gLQaMrTM1MZD8AMxsT5E9dmwqhkzquaR2mn21Khh6eHIE3uqX9Sn2FHNCcUInj5eNXEei0RHFq5?></g></svg>