<svg xmlns="http://www.w3.org/2000/svg" xmlns:xlink="http://www.w3.org/1999/xlink" contentStyleType="text/css" data-diagram-type="DESCRIPTION" height="1029px" preserveAspectRatio="none" style="width:2354px;height:1029px;background:#FFFFFF;" version="1.1" viewBox="0 0 2354 1029" width="2354px" zoomAndPan="magnify"><?plantuml 1.2026.5?><defs/><g><g class="title" data-source-line="1"><text fill="#000000" font-family="sans-serif" font-size="14" font-weight="700" lengthAdjust="spacing" textLength="357.6357" x="995.1357" y="23.5352">Diagrama de Despliegue &#8212; Artifacts sobre Nodos</text></g><!--cluster MOV--><g class="cluster" data-qualified-name="MOV" data-source-line="18" id="ent0001"><polygon fill="#E8F4FD" points="16,61.7283,26,51.7283,407,51.7283,407,153.2183,397,163.2183,16,163.2183,16,61.7283" style="stroke:#2C5F8D;stroke-width:1;stroke-linejoin:miter;stroke-miterlimit:10;"/><line style="stroke:#2C5F8D;stroke-width:1;" x1="397" x2="407" y1="61.7283" y2="51.7283"/><line style="stroke:#2C5F8D;stroke-width:1;" x1="16" x2="397" y1="61.7283" y2="61.7283"/><line style="stroke:#2C5F8D;stroke-width:1;" x1="397" x2="397" y1="61.7283" y2="163.2183"/><text fill="#000000" font-family="sans-serif" font-size="14" font-weight="700" lengthAdjust="spacing" textLength="149.1807" x="132.9097" y="78.2634">Smartphone Android</text><text fill="#000000" font-family="sans-serif" font-size="14" font-weight="700" lengthAdjust="spacing" textLength="62.7129" x="176.1436" y="94.7517">(Mesero)</text></g><!--cluster CAJA--><g class="cluster" data-qualified-name="CAJA" data-source-line="23" id="ent0004"><polygon fill="#E8F4FD" points="431,53.4883,441,43.4883,1025,43.4883,1025,161.4683,1015,171.4683,431,171.4683,431,53.4883" style="stroke:#2C5F8D;stroke-width:1;stroke-linejoin:miter;stroke-miterlimit:10;"/><line style="stroke:#2C5F8D;stroke-width:1;" x1="1015" x2="1025" y1="53.4883" y2="43.4883"/><line style="stroke:#2C5F8D;stroke-width:1;" x1="431" x2="1015" y1="53.4883" y2="53.4883"/><line style="stroke:#2C5F8D;stroke-width:1;" x1="1015" x2="1015" y1="53.4883" y2="171.4683"/><text fill="#000000" font-family="sans-serif" font-size="14" font-weight="700" lengthAdjust="spacing" textLength="117.0107" x="665.4946" y="70.0234">Tablet / PC Caja</text><text fill="#000000" font-family="sans-serif" font-size="14" font-weight="700" lengthAdjust="spacing" textLength="114.6045" x="666.6978" y="86.5117">(Administrador)</text></g><!--cluster HOST--><g class="cluster" data-qualified-name="HOST" data-source-line="31" id="ent0008"><polygon fill="#E8F4FD" points="351,253.4683,361,243.4683,1666,243.4683,1666,994.6383,1656,1004.6383,351,1004.6383,351,253.4683" style="stroke:#2C5F8D;stroke-width:1;stroke-linejoin:miter;stroke-miterlimit:10;"/><line style="stroke:#2C5F8D;stroke-width:1;" x1="1656" x2="1666" y1="253.4683" y2="243.4683"/><line style="stroke:#2C5F8D;stroke-width:1;" x1="351" x2="1656" y1="253.4683" y2="253.4683"/><line style="stroke:#2C5F8D;stroke-width:1;" x1="1656" x2="1656" y1="253.4683" y2="1004.6383"/><text fill="#000000" font-family="sans-serif" font-size="14" font-weight="700" lengthAdjust="spacing" textLength="193.1904" x="907.9048" y="270.0034">Host Local del Restaurante</text><text fill="#000000" font-family="sans-serif" font-size="14" font-weight="700" lengthAdjust="spacing" textLength="148.9209" x="930.0396" y="286.4917">(Docker Engine 24+)</text></g><!--cluster CTAPP--><g class="cluster" data-qualified-name="HOST.CTAPP" data-source-line="33" id="ent0009"><polygon fill="#E8F4FD" points="391,333.4683,401,323.4683,1183,323.4683,1183,623.1783,1173,633.1783,391,633.1783,391,333.4683" style="stroke:#2C5F8D;stroke-width:1;stroke-linejoin:miter;stroke-miterlimit:10;"/><line style="stroke:#2C5F8D;stroke-width:1;" x1="1173" x2="1183" y1="333.4683" y2="323.4683"/><line style="stroke:#2C5F8D;stroke-width:1;" x1="391" x2="1173" y1="333.4683" y2="333.4683"/><line style="stroke:#2C5F8D;stroke-width:1;" x1="1173" x2="1173" y1="333.4683" y2="633.1783"/><text fill="#000000" font-family="sans-serif" font-size="14" font-weight="700" lengthAdjust="spacing" textLength="115.3633" x="725.3184" y="350.0034">Contenedor app</text></g><!--cluster CTMONGO--><g class="cluster" data-qualified-name="HOST.CTMONGO" data-source-line="41" id="ent0015"><polygon fill="#E8F4FD" points="1223,523.4383,1233,513.4383,1447,513.4383,1447,795.1483,1437,805.1483,1223,805.1483,1223,523.4383" style="stroke:#2C5F8D;stroke-width:1;stroke-linejoin:miter;stroke-miterlimit:10;"/><line style="stroke:#2C5F8D;stroke-width:1;" x1="1437" x2="1447" y1="523.4383" y2="513.4383"/><line style="stroke:#2C5F8D;stroke-width:1;" x1="1223" x2="1437" y1="523.4383" y2="523.4383"/><line style="stroke:#2C5F8D;stroke-width:1;" x1="1437" x2="1437" y1="523.4383" y2="805.1483"/><text fill="#000000" font-family="sans-serif" font-size="14" font-weight="700" lengthAdjust="spacing" textLength="138.4688" x="1261.7656" y="539.9734">Contenedor mongo</text></g><!--cluster VOL--><g class="cluster" data-qualified-name="HOST.VOL" data-source-line="46" id="ent0018"><polygon fill="#E8F4FD" points="1220,887.1483,1230,877.1483,1626,877.1483,1626,962.6383,1616,972.6383,1220,972.6383,1220,887.1483" style="stroke:#2C5F8D;stroke-width:1;stroke-linejoin:miter;stroke-miterlimit:10;"/><line style="stroke:#2C5F8D;stroke-width:1;" x1="1616" x2="1626" y1="887.1483" y2="877.1483"/><line style="stroke:#2C5F8D;stroke-width:1;" x1="1220" x2="1616" y1="887.1483" y2="887.1483"/><line style="stroke:#2C5F8D;stroke-width:1;" x1="1616" x2="1616" y1="887.1483" y2="972.6383"/><text fill="#000000" font-family="sans-serif" font-size="14" font-weight="700" lengthAdjust="spacing" textLength="101.5137" x="1368.2432" y="903.6834">Volumen Host</text></g><!--entity ChromeM--><g class="entity" data-qualified-name="MOV.ChromeM" data-source-line="19" id="ent0002"><rect fill="#FFF2CC" height="39.4883" rx="2.5" ry="2.5" style="stroke:#B8860B;stroke-width:0.5;" width="160.7236" x="31.64" y="107.7283"/><polygon fill="#FFF2CC" points="175.3636,112.7283,175.3636,126.7283,187.3636,126.7283,187.3636,118.7283,181.3636,112.7283,175.3636,112.7283" style="stroke:#B8860B;stroke-width:0.5;stroke-linejoin:miter;stroke-miterlimit:10;"/><line style="stroke:#B8860B;stroke-width:0.5;" x1="181.3636" x2="181.3636" y1="112.7283" y2="118.7283"/><line style="stroke:#B8860B;stroke-width:0.5;" x1="187.3636" x2="181.3636" y1="118.7283" y2="118.7283"/><text fill="#000000" font-family="sans-serif" font-size="14" lengthAdjust="spacing" textLength="130.7236" x="41.64" y="134.2634">Navegador Chrome</text></g><!--entity TokenM--><g class="entity" data-qualified-name="MOV.TokenM" data-source-line="20" id="ent0003"><rect fill="#FFF2CC" height="39.4883" rx="2.5" ry="2.5" style="stroke:#B8860B;stroke-width:0.5;" width="163.4922" x="227.25" y="107.7283"/><polygon fill="#FFF2CC" points="373.7422,112.7283,373.7422,126.7283,385.7422,126.7283,385.7422,118.7283,379.7422,112.7283,373.7422,112.7283" style="stroke:#B8860B;stroke-width:0.5;stroke-linejoin:miter;stroke-miterlimit:10;"/><line style="stroke:#B8860B;stroke-width:0.5;" x1="379.7422" x2="379.7422" y1="112.7283" y2="118.7283"/><line style="stroke:#B8860B;stroke-width:0.5;" x1="385.7422" x2="379.7422" y1="118.7283" y2="118.7283"/><text fill="#000000" font-family="sans-serif" font-size="14" lengthAdjust="spacing" textLength="133.4922" x="237.25" y="134.2634">JWT en localStorage</text></g><!--entity ChromeA--><g class="entity" data-qualified-name="CAJA.ChromeA" data-source-line="24" id="ent0005"><rect fill="#FFF2CC" height="39.4883" rx="2.5" ry="2.5" style="stroke:#B8860B;stroke-width:0.5;" width="160.7236" x="446.64" y="107.7283"/><polygon fill="#FFF2CC" points="590.3636,112.7283,590.3636,126.7283,602.3636,126.7283,602.3636,118.7283,596.3636,112.7283,590.3636,112.7283" style="stroke:#B8860B;stroke-width:0.5;stroke-linejoin:miter;stroke-miterlimit:10;"/><line style="stroke:#B8860B;stroke-width:0.5;" x1="596.3636" x2="596.3636" y1="112.7283" y2="118.7283"/><line style="stroke:#B8860B;stroke-width:0.5;" x1="602.3636" x2="596.3636" y1="118.7283" y2="118.7283"/><text fill="#000000" font-family="sans-serif" font-size="14" lengthAdjust="spacing" textLength="130.7236" x="456.64" y="134.2634">Navegador Chrome</text></g><!--entity TokenA--><g class="entity" data-qualified-name="CAJA.TokenA" data-source-line="25" id="ent0006"><rect fill="#FFF2CC" height="39.4883" rx="2.5" ry="2.5" style="stroke:#B8860B;stroke-width:0.5;" width="163.4922" x="642.25" y="107.7283"/><polygon fill="#FFF2CC" points="788.7422,112.7283,788.7422,126.7283,800.7422,126.7283,800.7422,118.7283,794.7422,112.7283,788.7422,112.7283" style="stroke:#B8860B;stroke-width:0.5;stroke-linejoin:miter;stroke-miterlimit:10;"/><line style="stroke:#B8860B;stroke-width:0.5;" x1="794.7422" x2="794.7422" y1="112.7283" y2="118.7283"/><line style="stroke:#B8860B;stroke-width:0.5;" x1="800.7422" x2="794.7422" y1="118.7283" y2="118.7283"/><text fill="#000000" font-family="sans-serif" font-size="14" lengthAdjust="spacing" textLength="133.4922" x="652.25" y="134.2634">JWT en localStorage</text></g><!--entity SwgClient--><g class="entity" data-qualified-name="CAJA.SwgClient" data-source-line="26" id="ent0007"><rect fill="#FFF2CC" height="55.9766" rx="2.5" ry="2.5" style="stroke:#B8860B;stroke-width:0.5;" width="168.0313" x="840.98" y="99.4883"/><polygon fill="#FFF2CC" points="992.0113,104.4883,992.0113,118.4883,1004.0113,118.4883,1004.0113,110.4883,998.0113,104.4883,992.0113,104.4883" style="stroke:#B8860B;stroke-width:0.5;stroke-linejoin:miter;stroke-miterlimit:10;"/><line style="stroke:#B8860B;stroke-width:0.5;" x1="998.0113" x2="998.0113" y1="104.4883" y2="110.4883"/><line style="stroke:#B8860B;stroke-width:0.5;" x1="1004.0113" x2="998.0113" y1="110.4883" y2="110.4883"/><text fill="#000000" font-family="sans-serif" font-size="14" lengthAdjust="spacing" textLength="75.209" x="850.98" y="126.0234">Swagger UI</text><text fill="#000000" font-family="sans-serif" font-size="14" lengthAdjust="spacing" textLength="138.0313" x="850.98" y="142.5117">(cliente de respaldo)</text></g><!--entity JAR--><g class="entity" data-qualified-name="HOST.CTAPP.JAR" data-source-line="34" id="ent0010"><rect fill="#FFF2CC" height="39.4883" rx="2.5" ry="2.5" style="stroke:#B8860B;stroke-width:0.5;" width="223.2314" x="415.38" y="379.7083"/><polygon fill="#FFF2CC" points="621.6114,384.7083,621.6114,398.7083,633.6114,398.7083,633.6114,390.7083,627.6114,384.7083,621.6114,384.7083" style="stroke:#B8860B;stroke-width:0.5;stroke-linejoin:miter;stroke-miterlimit:10;"/><line style="stroke:#B8860B;stroke-width:0.5;" x1="627.6114" x2="627.6114" y1="384.7083" y2="390.7083"/><line style="stroke:#B8860B;stroke-width:0.5;" x1="633.6114" x2="627.6114" y1="390.7083" y2="390.7083"/><text fill="#000000" font-family="sans-serif" font-size="14" lengthAdjust="spacing" textLength="193.2314" x="425.38" y="406.2434">montania-margarita-app.jar</text></g><!--entity OAS--><g class="entity" data-qualified-name="HOST.CTAPP.OAS" data-source-line="35" id="ent0011"><rect fill="#FFF2CC" height="55.9766" rx="2.5" ry="2.5" style="stroke:#B8860B;stroke-width:0.5;" width="130.2969" x="687.85" y="553.1983"/><polygon fill="#FFF2CC" points="801.1469,558.1983,801.1469,572.1983,813.1469,572.1983,813.1469,564.1983,807.1469,558.1983,801.1469,558.1983" style="stroke:#B8860B;stroke-width:0.5;stroke-linejoin:miter;stroke-miterlimit:10;"/><line style="stroke:#B8860B;stroke-width:0.5;" x1="807.1469" x2="807.1469" y1="558.1983" y2="564.1983"/><line style="stroke:#B8860B;stroke-width:0.5;" x1="813.1469" x2="807.1469" y1="564.1983" y2="564.1983"/><text fill="#000000" font-family="sans-serif" font-size="14" lengthAdjust="spacing" textLength="93.3584" x="697.85" y="579.7334">OpenAPI Spec</text><text fill="#000000" font-family="sans-serif" font-size="14" lengthAdjust="spacing" textLength="100.2969" x="697.85" y="596.2217">(/v3/api-docs)</text></g><!--entity SwgArt--><g class="entity" data-qualified-name="HOST.CTAPP.SwgArt" data-source-line="36" id="ent0012"><rect fill="#FFF2CC" height="55.9766" rx="2.5" ry="2.5" style="stroke:#B8860B;stroke-width:0.5;" width="159.3975" x="673.3" y="371.4683"/><polygon fill="#FFF2CC" points="815.6975,376.4683,815.6975,390.4683,827.6975,390.4683,827.6975,382.4683,821.6975,376.4683,815.6975,376.4683" style="stroke:#B8860B;stroke-width:0.5;stroke-linejoin:miter;stroke-miterlimit:10;"/><line style="stroke:#B8860B;stroke-width:0.5;" x1="821.6975" x2="821.6975" y1="376.4683" y2="382.4683"/><line style="stroke:#B8860B;stroke-width:0.5;" x1="827.6975" x2="821.6975" y1="382.4683" y2="382.4683"/><text fill="#000000" font-family="sans-serif" font-size="14" lengthAdjust="spacing" textLength="75.209" x="683.3" y="398.0034">Swagger UI</text><text fill="#000000" font-family="sans-serif" font-size="14" lengthAdjust="spacing" textLength="129.3975" x="683.3" y="414.4917">(/swagger-ui.html)</text></g><!--entity JwtArt--><g class="entity" data-qualified-name="HOST.CTAPP.JwtArt" data-source-line="37" id="ent0013"><rect fill="#FFF2CC" height="39.4883" rx="2.5" ry="2.5" style="stroke:#B8860B;stroke-width:0.5;" width="93.9775" x="868.01" y="379.7083"/><polygon fill="#FFF2CC" points="944.9875,384.7083,944.9875,398.7083,956.9875,398.7083,956.9875,390.7083,950.9875,384.7083,944.9875,384.7083" style="stroke:#B8860B;stroke-width:0.5;stroke-linejoin:miter;stroke-miterlimit:10;"/><line style="stroke:#B8860B;stroke-width:0.5;" x1="950.9875" x2="950.9875" y1="384.7083" y2="390.7083"/><line style="stroke:#B8860B;stroke-width:0.5;" x1="956.9875" x2="950.9875" y1="390.7083" y2="390.7083"/><text fill="#000000" font-family="sans-serif" font-size="14" lengthAdjust="spacing" textLength="63.9775" x="878.01" y="406.2434">JWT Filter</text></g><!--entity LogArt--><g class="entity" data-qualified-name="HOST.CTAPP.LogArt" data-source-line="38" id="ent0014"><rect fill="#FFF2CC" height="55.9766" rx="2.5" ry="2.5" style="stroke:#B8860B;stroke-width:0.5;" width="142.8887" x="996.56" y="371.4683"/><polygon fill="#FFF2CC" points="1122.4487,376.4683,1122.4487,390.4683,1134.4487,390.4683,1134.4487,382.4683,1128.4487,376.4683,1122.4487,376.4683" style="stroke:#B8860B;stroke-width:0.5;stroke-linejoin:miter;stroke-miterlimit:10;"/><line style="stroke:#B8860B;stroke-width:0.5;" x1="1128.4487" x2="1128.4487" y1="376.4683" y2="382.4683"/><line style="stroke:#B8860B;stroke-width:0.5;" x1="1134.4487" x2="1128.4487" y1="382.4683" y2="382.4683"/><text fill="#000000" font-family="sans-serif" font-size="14" lengthAdjust="spacing" textLength="106.0186" x="1006.56" y="398.0034">Logback Config</text><text fill="#000000" font-family="sans-serif" font-size="14" lengthAdjust="spacing" textLength="112.8887" x="1006.56" y="414.4917">(application.yml)</text></g><!--entity MongoD--><g class="entity" data-qualified-name="HOST.CTMONGO.MongoD" data-source-line="42" id="ent0016"><rect fill="#FFF2CC" height="39.4883" rx="2.5" ry="2.5" style="stroke:#B8860B;stroke-width:0.5;" width="112.7969" x="1246.6" y="561.4383"/><polygon fill="#FFF2CC" points="1342.3969,566.4383,1342.3969,580.4383,1354.3969,580.4383,1354.3969,572.4383,1348.3969,566.4383,1342.3969,566.4383" style="stroke:#B8860B;stroke-width:0.5;stroke-linejoin:miter;stroke-miterlimit:10;"/><line style="stroke:#B8860B;stroke-width:0.5;" x1="1348.3969" x2="1348.3969" y1="566.4383" y2="572.4383"/><line style="stroke:#B8860B;stroke-width:0.5;" x1="1354.3969" x2="1348.3969" y1="572.4383" y2="572.4383"/><text fill="#000000" font-family="sans-serif" font-size="14" lengthAdjust="spacing" textLength="82.7969" x="1256.6" y="587.9734">mongod 7.x</text></g><!--entity DataVol--><g class="entity" data-qualified-name="HOST.CTMONGO.DataVol" data-source-line="43" id="ent0017"><path d="M1246.57,729.1783 C1246.57,719.1783 1318.0046,719.1783 1318.0046,719.1783 C1318.0046,719.1783 1389.4391,719.1783 1389.4391,729.1783 L1389.4391,771.1548 C1389.4391,781.1548 1318.0046,781.1548 1318.0046,781.1548 C1318.0046,781.1548 1246.57,781.1548 1246.57,771.1548 L1246.57,729.1783" fill="#DAE8FC" style="stroke:#6C8EBF;stroke-width:0.5;"/><path d="M1246.57,729.1783 C1246.57,739.1783 1318.0046,739.1783 1318.0046,739.1783 C1318.0046,739.1783 1389.4391,739.1783 1389.4391,729.1783" fill="none" style="stroke:#6C8EBF;stroke-width:0.5;"/><text fill="#000000" font-family="sans-serif" font-size="14" lengthAdjust="spacing" textLength="105.7588" x="1256.57" y="756.7134">Volumen ./data</text><text fill="#000000" font-family="sans-serif" font-size="14" lengthAdjust="spacing" textLength="122.8691" x="1256.57" y="773.2017">(Journaling activo)</text></g><!--entity DataDir--><g class="entity" data-qualified-name="HOST.VOL.DataDir" data-source-line="47" id="ent0019"><rect fill="#FFF2CC" height="39.4883" rx="2.5" ry="2.5" style="stroke:#B8860B;stroke-width:0.5;" width="78.624" x="1235.69" y="917.1483"/><polygon fill="#FFF2CC" points="1297.314,922.1483,1297.314,936.1483,1309.314,936.1483,1309.314,928.1483,1303.314,922.1483,1297.314,922.1483" style="stroke:#B8860B;stroke-width:0.5;stroke-linejoin:miter;stroke-miterlimit:10;"/><line style="stroke:#B8860B;stroke-width:0.5;" x1="1303.314" x2="1303.314" y1="922.1483" y2="928.1483"/><line style="stroke:#B8860B;stroke-width:0.5;" x1="1309.314" x2="1303.314" y1="928.1483" y2="928.1483"/><text fill="#000000" font-family="sans-serif" font-size="14" lengthAdjust="spacing" textLength="48.624" x="1245.69" y="943.6834">./data/</text></g><!--entity BackupDir--><g class="entity" data-qualified-name="HOST.VOL.BackupDir" data-source-line="48" id="ent0020"><rect fill="#FFF2CC" height="39.4883" rx="2.5" ry="2.5" style="stroke:#B8860B;stroke-width:0.5;" width="105.6465" x="1349.18" y="917.1483"/><polygon fill="#FFF2CC" points="1437.8265,922.1483,1437.8265,936.1483,1449.8265,936.1483,1449.8265,928.1483,1443.8265,922.1483,1437.8265,922.1483" style="stroke:#B8860B;stroke-width:0.5;stroke-linejoin:miter;stroke-miterlimit:10;"/><line style="stroke:#B8860B;stroke-width:0.5;" x1="1443.8265" x2="1443.8265" y1="922.1483" y2="928.1483"/><line style="stroke:#B8860B;stroke-width:0.5;" x1="1449.8265" x2="1443.8265" y1="928.1483" y2="928.1483"/><text fill="#000000" font-family="sans-serif" font-size="14" lengthAdjust="spacing" textLength="75.6465" x="1359.18" y="943.6834">./backups/</text></g><!--entity EnvFile--><g class="entity" data-qualified-name="HOST.VOL.EnvFile" data-source-line="49" id="ent0021"><rect fill="#FFF2CC" height="39.4883" rx="2.5" ry="2.5" style="stroke:#B8860B;stroke-width:0.5;" width="119.708" x="1490.15" y="917.1483"/><polygon fill="#FFF2CC" points="1592.858,922.1483,1592.858,936.1483,1604.858,936.1483,1604.858,928.1483,1598.858,922.1483,1592.858,922.1483" style="stroke:#B8860B;stroke-width:0.5;stroke-linejoin:miter;stroke-miterlimit:10;"/><line style="stroke:#B8860B;stroke-width:0.5;" x1="1598.858" x2="1598.858" y1="922.1483" y2="928.1483"/><line style="stroke:#B8860B;stroke-width:0.5;" x1="1604.858" x2="1598.858" y1="928.1483" y2="928.1483"/><text fill="#000000" font-family="sans-serif" font-size="14" lengthAdjust="spacing" textLength="89.708" x="1500.15" y="943.6834">.env (secrets)</text></g><g class="entity" data-qualified-name="GMN31" data-source-line="67" id="ent0032"><path d="M1693.16,371.4883 L1693.16,427.4199 L2000.8329,427.4199 L2000.8329,381.4883 L1990.8329,371.4883 L1693.16,371.4883" fill="#FEFFDD" style="stroke:#181818;stroke-width:0.5;"/><path d="M1990.8329,371.4883 L1990.8329,381.4883 L2000.8329,381.4883 L1990.8329,371.4883" fill="#FEFFDD" style="stroke:#181818;stroke-width:1;"/><text fill="#000000" font-family="sans-serif" font-size="13" lengthAdjust="spacing" textLength="246.9873" x="1699.16" y="389.0566">Red Docker interna: montania-network</text><text fill="#000000" font-family="sans-serif" font-size="13" lengthAdjust="spacing" textLength="202.1855" x="1699.16" y="404.3672">Pol&#237;tica: restart: unless-stopped</text><text fill="#000000" font-family="sans-serif" font-size="13" lengthAdjust="spacing" textLength="286.6729" x="1699.16" y="419.6777">Healthchecks activos en ambos contenedores</text></g><g class="entity" data-qualified-name="GMN34" data-source-line="73" id="ent0035"><path d="M2036.1,371.4883 L2036.1,427.4199 L2339.9071,427.4199 L2339.9071,381.4883 L2329.9071,371.4883 L2036.1,371.4883" fill="#FEFFDD" style="stroke:#181818;stroke-width:0.5;"/><path d="M2329.9071,371.4883 L2329.9071,381.4883 L2339.9071,381.4883 L2329.9071,371.4883" fill="#FEFFDD" style="stroke:#181818;stroke-width:1;"/><text fill="#000000" font-family="sans-serif" font-size="13" lengthAdjust="spacing" textLength="282.8071" x="2042.1" y="389.0566">Imagen base: eclipse-temurin:17-jre-jammy</text><text fill="#000000" font-family="sans-serif" font-size="13" lengthAdjust="spacing" textLength="155.4478" x="2042.1" y="404.3672">Memoria: 512 MB - 1 GB</text><text fill="#000000" font-family="sans-serif" font-size="13" lengthAdjust="spacing" textLength="144.0664" x="2042.1" y="419.6777">Puerto expuesto: 8080</text></g><g class="entity" data-qualified-name="GMN37" data-source-line="79" id="ent0038"><path d="M1689.9,553.2183 L1689.9,609.1499 L1914.0948,609.1499 L1914.0948,563.2183 L1904.0948,553.2183 L1689.9,553.2183" fill="#FEFFDD" style="stroke:#181818;stroke-width:0.5;"/><path d="M1904.0948,553.2183 L1904.0948,563.2183 L1914.0948,563.2183 L1904.0948,553.2183" fill="#FEFFDD" style="stroke:#181818;stroke-width:1;"/><text fill="#000000" font-family="sans-serif" font-size="13" lengthAdjust="spacing" textLength="111.3188" x="1695.9" y="570.7866">Imagen: mongo:7</text><text fill="#000000" font-family="sans-serif" font-size="13" lengthAdjust="spacing" textLength="155.4478" x="1695.9" y="586.0972">Memoria: 512 MB - 1 GB</text><text fill="#000000" font-family="sans-serif" font-size="13" lengthAdjust="spacing" textLength="203.1948" x="1695.9" y="601.4077">Sin exposici&#243;n de puerto al host</text></g><!--link ChromeM to JAR--><g class="link" data-entity-1="ent0002" data-entity-2="ent0010" data-link-type="dependency" data-source-line="55" id="lnk22"><path d="M141.51,147.6783 C217.9,197.3683 417.2287,327.0419 493.4487,376.6219" fill="none" id="ChromeM-to-JAR" style="stroke:#181818;stroke-width:1;"/><polygon fill="#181818" points="497.64,379.3483,492.2768,371.0878,493.4487,376.6219,487.9146,377.7938,497.64,379.3483" style="stroke:#181818;stroke-width:1;stroke-linejoin:miter;stroke-miterlimit:10;"/><text fill="#000000" font-family="sans-serif" font-size="13" lengthAdjust="spacing" textLength="70.7446" x="272.2779" y="201.0366">HTTP/JSON</text><text fill="#000000" font-family="sans-serif" font-size="13" lengthAdjust="spacing" textLength="120.8403" x="247.23" y="216.3472">(LAN, puerto 8080)</text></g><!--link ChromeA to JAR--><g class="link" data-entity-1="ent0005" data-entity-2="ent0010" data-link-type="dependency" data-source-line="56" id="lnk23"><path d="M527,147.4583 C527,197.0283 527,324.9383 527,374.4883" fill="none" id="ChromeA-to-JAR" style="stroke:#181818;stroke-width:1;"/><polygon fill="#181818" points="527,379.4883,531,370.4883,527,374.4883,523,370.4883,527,379.4883" style="stroke:#181818;stroke-width:1;stroke-linejoin:miter;stroke-miterlimit:10;"/><text fill="#000000" font-family="sans-serif" font-size="13" lengthAdjust="spacing" textLength="70.7446" x="553.0479" y="201.0366">HTTP/JSON</text><text fill="#000000" font-family="sans-serif" font-size="13" lengthAdjust="spacing" textLength="120.8403" x="528" y="216.3472">(LAN, puerto 8080)</text></g><!--link SwgClient to SwgArt--><g class="link" data-entity-1="ent0007" data-entity-2="ent0012" data-link-type="dependency" data-source-line="57" id="lnk24"><path d="M903.35,155.5683 C888.08,175.1083 867.49,202.3583 851,227.4683 C818.69,276.6483 787.9127,332.5164 769.6427,366.7764" fill="none" id="SwgClient-to-SwgArt" style="stroke:#181818;stroke-width:1;"/><polygon fill="#181818" points="767.29,371.1883,775.0544,365.1291,769.6427,366.7764,767.9954,361.3647,767.29,371.1883" style="stroke:#181818;stroke-width:1;stroke-linejoin:miter;stroke-miterlimit:10;"/><text fill="#000000" font-family="sans-serif" font-size="13" lengthAdjust="spacing" textLength="33.1792" x="922.7778" y="201.0366">HTTP</text><text fill="#000000" font-family="sans-serif" font-size="13" lengthAdjust="spacing" textLength="120.1548" x="879.29" y="216.3472">(/swagger-ui.html)</text></g><!--link SwgArt to OAS--><g class="link" data-entity-1="ent0012" data-entity-2="ent0011" data-link-type="dependency" data-source-line="58" id="lnk25"><path d="M753,427.7483 C753,461.6283 753,514.0683 753,547.9283" fill="none" id="SwgArt-to-OAS" style="stroke:#181818;stroke-width:1;"/><polygon fill="#181818" points="753,552.9283,757,543.9283,753,547.9283,749,543.9283,753,552.9283" style="stroke:#181818;stroke-width:1;stroke-linejoin:miter;stroke-miterlimit:10;"/><text fill="#000000" font-family="sans-serif" font-size="13" lengthAdjust="spacing" textLength="53.2124" x="754" y="478.5066">describe</text></g><!--link JAR to MongoD--><g class="link" data-entity-1="ent0010" data-entity-2="ent0016" data-link-type="dependency" data-source-line="60" id="lnk26"><path d="M614.98,419.6783 C628.68,422.4383 642.7,425.1183 656,427.4383 C876.61,465.9483 942.74,426.0183 1155,497.4383 C1200.2,512.6483 1243.3156,538.9511 1271.9256,558.2611" fill="none" id="JAR-to-MongoD" style="stroke:#181818;stroke-width:1;"/><polygon fill="#181818" points="1276.07,561.0583,1270.8479,552.7079,1271.9256,558.2611,1266.3724,559.3388,1276.07,561.0583" style="stroke:#181818;stroke-width:1;stroke-linejoin:miter;stroke-miterlimit:10;"/><text fill="#000000" font-family="sans-serif" font-size="13" lengthAdjust="spacing" textLength="167.8892" x="1131.21" y="471.0066">mongodb://mongo:27017</text><text fill="#000000" font-family="sans-serif" font-size="13" lengthAdjust="spacing" textLength="126.4644" x="1151.9224" y="486.3172">(red interna Docker)</text></g><!--link MongoD to DataVol--><g class="link" data-entity-1="ent0016" data-entity-2="ent0017" data-link-type="dependency" data-source-line="61" id="lnk27"><path d="M1304.72,601.3383 C1307.31,630.1183 1311.7727,679.8083 1314.8427,713.9883" fill="none" id="MongoD-to-DataVol" style="stroke:#181818;stroke-width:1;"/><polygon fill="#181818" points="1315.29,718.9683,1318.4688,709.6465,1314.8427,713.9883,1310.5009,710.3622,1315.29,718.9683" style="stroke:#181818;stroke-width:1;stroke-linejoin:miter;stroke-miterlimit:10;"/><text fill="#000000" font-family="sans-serif" font-size="13" lengthAdjust="spacing" textLength="131.79" x="1313.28" y="678.2466">persiste documentos</text></g><!--link DataVol to DataDir--><g class="link" data-entity-1="ent0017" data-entity-2="ent0019" data-link-type="dependency" data-source-line="62" id="lnk28"><path d="M1311,781.2583 C1302.07,819.5883 1288.0429,879.8583 1280.5729,911.9683" fill="none" id="DataVol-to-DataDir" style="stroke:#181818;stroke-width:1;"/><polygon fill="#181818" points="1279.44,916.8383,1285.3752,908.9787,1280.5729,911.9683,1277.5833,907.166,1279.44,916.8383" style="stroke:#181818;stroke-width:1;stroke-linejoin:miter;stroke-miterlimit:10;"/><text fill="#000000" font-family="sans-serif" font-size="13" lengthAdjust="spacing" textLength="73.4233" x="1317.5102" y="842.7166">bind mount</text><text fill="#000000" font-family="sans-serif" font-size="13" lengthAdjust="spacing" textLength="108.3037" x="1300.07" y="858.0272">(./data:/data/db)</text></g><!--link MongoD to BackupDir--><g class="link" data-entity-1="ent0016" data-entity-2="ent0020" data-link-type="dependency" data-source-line="63" id="lnk29"><path d="M1314.36,601.4183 C1324.84,617.2083 1341.92,638.6083 1363,649.1783 C1380.95,658.1683 1439.45,642.3583 1453,657.1783 C1488.12,695.5483 1432.1574,856.0773 1411.0274,912.3573" fill="none" id="MongoD-to-BackupDir" style="stroke:#181818;stroke-width:1;stroke-dasharray:7,7;"/><polygon fill="#181818" points="1409.27,917.0383,1416.1782,910.0185,1411.0274,912.3573,1408.6886,907.2066,1409.27,917.0383" style="stroke:#181818;stroke-width:1;stroke-linejoin:miter;stroke-miterlimit:10;"/><text fill="#000000" font-family="sans-serif" font-size="13" lengthAdjust="spacing" textLength="80.8501" x="1470.4319" y="747.7266">mongodump</text><text fill="#000000" font-family="sans-serif" font-size="13" lengthAdjust="spacing" textLength="94.1738" x="1463.77" y="763.0372">(cron opcional)</text></g><!--link JAR to EnvFile--><g class="link" data-entity-1="ent0010" data-entity-2="ent0021" data-link-type="dependency" data-source-line="64" id="lnk30"><path d="M608.9,419.6383 C624.47,422.6983 640.68,425.4983 656,427.4383 C832.82,449.8683 1316.8,384.8783 1455,497.4383 C1573.04,593.5783 1578.19,669.3183 1567,821.1483 C1564.5,855.0883 1558.8004,889.3119 1554.6004,911.9919" fill="none" id="JAR-to-EnvFile" style="stroke:#181818;stroke-width:1;stroke-dasharray:7,7;"/><polygon fill="#181818" points="1553.69,916.9083,1559.2619,908.7871,1554.6004,911.9919,1551.3957,907.3304,1553.69,916.9083" style="stroke:#181818;stroke-width:1;stroke-linejoin:miter;stroke-miterlimit:10;"/><text fill="#000000" font-family="sans-serif" font-size="13" lengthAdjust="spacing" textLength="102.8828" x="1581.4133" y="670.7466">lee JWT_SECRET,</text><text fill="#000000" font-family="sans-serif" font-size="13" lengthAdjust="spacing" textLength="126.2295" x="1569.74" y="686.0572">MONGO_PASSWORD</text></g><!--link HOST to GMN31--><g class="link" data-entity-1="ent0008" data-entity-2="ent0032" data-link-type="association" data-source-line="67" id="lnk33"><path d="M1666.0876,399.4483 C1666.1321,399.4483 1666.1766,399.4483 1666.2211,399.4483 C1666.5774,399.4483 1666.9336,399.4483 1667.2898,399.4483 C1670.1397,399.4483 1672.9894,399.4483 1675.8388,399.4483 C1681.5375,399.4483 1687.235,399.4483 1692.93,399.4483" fill="none" id="HOST-GMN31" style="stroke:#181818;stroke-width:1;stroke-dasharray:7,7;"/></g><!--link CTAPP to GMN34--><g class="link" data-entity-1="ent0009" data-entity-2="ent0035" data-link-type="association" data-source-line="73" id="lnk36"><path d="M1157.2017,323.0485 C1157.0419,321.7442 1156.8897,320.4337 1156.746,319.1182 C1156.4584,316.4871 1156.2043,313.8355 1155.9888,311.1708 C1152.54,268.5358 1158.97,222.5483 1196.5,203.4683 C1236.32,183.2183 1959.43,185.9183 2000.5,203.4683 C2081.04,237.8783 2143.53,325.7483 2171.68,371.2283" fill="none" id="CTAPP-GMN34" style="stroke:#181818;stroke-width:1;stroke-dasharray:7,7;"/></g><!--link CTMONGO to GMN37--><g class="link" data-entity-1="ent0015" data-entity-2="ent0038" data-link-type="association" data-source-line="79" id="lnk39"><path d="M1447.5156,581.1883 C1450.1175,581.1883 1452.7194,581.1883 1455.3213,581.1883 C1460.525,581.1883 1465.7288,581.1883 1470.9325,581.1883 C1481.34,581.1883 1491.7475,581.1883 1502.155,581.1883 C1522.97,581.1883 1543.785,581.1883 1564.6,581.1883 C1606.23,581.1883 1647.86,581.1883 1689.49,581.1883" fill="none" id="CTMONGO-GMN37" style="stroke:#181818;stroke-width:1;stroke-dasharray:7,7;"/></g><?plantuml-src ZLLBRjj84Dtp50NFOc9CADdEnuA02K2HaYt34WLHSMOH86YHPQejifleRje9WW1pY5mZgpb2RZ8dcMeshOa-2Im80Z-lgbw_UbKot1G84MUvOYM3ZAvHLmN7l4Ruz--l42Z3RrbgD6YvL0XJcKdjUNhDHSKe1eIaeCyUm82bwrp9McIXBAI2tuQzqSjHPDz8bQ5gdvw5hqQzoFloGmhMrZYSPZGQdONXRff1h_VwPB2L9cE6BPd-2Pie83vxQLw7lU5WH6cyt-7FhGz4usGM9-F5-2PE8BmU3wUBuGx6yvhJ7oKb7Q5QIO4GY4n9dhqNpoQeKSdZ8s0Q9l5DmsfpqgCfkyUSPSGXN2bPOWDpbvCjuDMx1Q20GgQiI8nKB7VOXLoZc5ZcZiE2BGiqq8LP226xOyGWo4ekk3RArd54mk0gU3gJuEbCjg790yjpLF1sJ3HIifCmQCsbo5oio5fLaeSyRDuTrFyoJXOG3UcRp4ZzYxS_K_zIQWFNbXMLA62Esh1QCIf9nIEPhed8KEISkdFsyWzNkad-sIFIBaSe2IxGgi2goacm26QpHgiVJrOIa0dEV6fvpXGtpAU0pXrJJT1LCDy9Y2iIPpQ6fCAK-7JlNtHPnVrCfjfHYODa9sHBlQvsTtxDEojJ5XlfQ39tuco3Hhmms79vCFkOQvalQJI03dpBSyfFx0kUCiEbw7nwJ4ye5_hbe4GaGYvRaIRnz28-95CkCpZlV7J-jxTHWzbCwT6DBEgI3DNfscT4vKhMIh22Ynme2RzlRHBHMy9kitaCjirlK3VnzHuBbxcxoH9njOUmQjILTg11StC0Xk8UdcbC5PgsRKDnJrfZm-gGVSDuElnhJ3_9dctRCGVVVsCD0tsuN2nctQiadf8Ary7qELGrAYEXTz8xEMxnmPFncxbg8fnLsg13Xl9QX0MJ6GcPeKuLNwBdsNBskMiWlNADNVQxtUQgVtP-SdfEMHLcmCaWr41mCtVijK4slkqX9QXGQTf9j0vaQZjewE_ayUqZaXf0o2KN6TMhXQ7yhfLzrz1ikKdUwRpvlsiRVdLPsSMZf01PfMHjHiUqPx7mjdC4BX21XkP3CWpdmyNpzw8nyuTPa2Jludba5mmHLJnV6P2tpTAWVi_fgErQQK_Sb7LhGQ1va6fDi9aildypD5fzk_OCcQaFjIXGQryRMLMO4UWIMM5MwGhJjMvDh-sIPUMIBjBDoA7saDImV7PPDNkAKerBMiW2x6pr0MdfLXfzWsMjkEYVdljt2lqxLfQV23l1KYfEp5wTdi5a03wSmiN0adO-mezaA6BPRnprYzADO9lYhVpzyr-LIBYm-QNcAV_-Zx1_2wrxQO6lQ9mtvVu3?></g></svg>